<?xml version="1.0" encoding="utf-8"?>
<!-- Generator: Adobe Illustrator 17.0.2, SVG Export Plug-In . SVG Version: 6.00 Build 0)  -->
<!DOCTYPE svg PUBLIC "-//W3C//DTD SVG 1.1//EN" "http://www.w3.org/Graphics/SVG/1.1/DTD/svg11.dtd">
<svg version="1.1" id="Layer_1" xmlns="http://www.w3.org/2000/svg" xmlns:xlink="http://www.w3.org/1999/xlink" x="0px" y="0px"
	 width="64px" height="64px" viewBox="0 0 64 64" enable-background="new 0 0 64 64" xml:space="preserve">
<path fill="#2C2C2C" d="M59.429,53.714V26.285c-0.762,0.857-1.583,1.643-2.464,2.357c-6.381,4.905-11.452,8.928-15.214,12.071
	c-1.214,1.024-2.202,1.822-2.964,2.393s-1.792,1.149-3.089,1.732c-1.297,0.583-2.518,0.875-3.661,0.875h-0.071
	c-1.143,0-2.363-0.292-3.661-0.875c-1.298-0.583-2.328-1.161-3.089-1.732c-0.761-0.571-1.749-1.369-2.964-2.393
	c-3.762-3.143-8.833-7.166-15.214-12.071c-0.881-0.714-1.702-1.5-2.464-2.357v27.429c0,0.309,0.113,0.577,0.339,0.804
	s0.494,0.34,0.804,0.339h52.571c0.309,0,0.577-0.113,0.804-0.339c0.227-0.226,0.34-0.494,0.339-0.804L59.429,53.714z M59.429,16.179
	v-0.875c0,0-0.006-0.155-0.018-0.464c-0.012-0.309-0.048-0.458-0.107-0.446s-0.125-0.095-0.196-0.321s-0.178-0.315-0.321-0.268
	c-0.143,0.047-0.309,0.018-0.5-0.089H5.716c-0.309,0-0.577,0.113-0.804,0.339s-0.34,0.494-0.339,0.804c0,4,1.75,7.381,5.25,10.143
	c4.595,3.619,9.369,7.393,14.321,11.321c0.143,0.119,0.559,0.471,1.25,1.054c0.691,0.583,1.238,1.03,1.643,1.339
	s0.934,0.684,1.589,1.125s1.256,0.768,1.804,0.982c0.548,0.214,1.06,0.321,1.536,0.321h0.071c0.476,0,0.988-0.107,1.536-0.321
	c0.548-0.214,1.149-0.541,1.804-0.982s1.184-0.816,1.589-1.125c0.405-0.309,0.952-0.756,1.643-1.339
	c0.691-0.583,1.107-0.935,1.25-1.054c4.953-3.929,9.726-7.702,14.321-11.321c1.286-1.024,2.482-2.399,3.589-4.125
	s1.66-3.291,1.661-4.696L59.429,16.179z M64,14.857v38.857c0,1.571-0.56,2.917-1.679,4.036c-1.119,1.119-2.465,1.679-4.036,1.679
	H5.714c-1.571,0-2.917-0.56-4.036-1.679c-1.119-1.119-1.679-2.465-1.679-4.036V14.857c0-1.571,0.56-2.917,1.679-4.036
	s2.465-1.679,4.036-1.679h52.571c1.571,0,2.917,0.56,4.036,1.679S64,13.286,64,14.857z"/>
</svg>
